# xmcd
#
# Track frame offsets:
#	150
#	20957
#	41762
#	63735
#	78817
#	100564
#	124026
#	143887
#	157190
#	175205
#	193349
#	222667
#	240232
#	261852
#	292621
#	314519
#
# Disc length: 4383 seconds
#
# Revision: 0
# Processed by: cddbd v1.5.2PL0 Copyright (c) Steve Scherf et al.
# Submitted via: EZCDAudioConverter 3.0.6.1
#
DISCID=ec111d10
DTITLE=Emmylou Harris - Live at Shepherd's Bush Empire London
DYEAR=1995
DGENRE=Country
TTITLE0=May This Be Love
TTITLE1=Where Will I Be
TTITLE2=Poncho And Lefty
TTITLE3=Orphan Girl
TTITLE4=Goodbye
TTITLE5=Goin' Back To Harlan
TTITLE6=Rock Of Ages
TTITLE7=One Of These Days
TTITLE8=Every Grain Of Sand
TTITLE9=Sweet Old World
TTITLE10=Indian Brave
TTITLE11=Makin' Believe
TTITLE12=Wrecking Ball
TTITLE13=Deeper Well
TTITLE14=Blackhawk
TTITLE15=Wheels
EXTD=
EXTT0=
EXTT1=
EXTT2=
EXTT3=
EXTT4=
EXTT5=
EXTT6=
EXTT7=
EXTT8=
EXTT9=
EXTT10=
EXTT11=
EXTT12=
EXTT13=
EXTT14=
EXTT15=
PLAYORDER=
